M48
; DRILL file {KiCad 7.99.0-unknown-70ffd971e3~172~ubuntu22.04.1} date Sun 09 Jul 2023 07:41:56 AM CDT
; FORMAT={-:-/ absolute / inch / decimal}
; #@! TF.CreationDate,2023-07-09T07:41:56-05:00
; #@! TF.GenerationSoftware,Kicad,Pcbnew,7.99.0-unknown-70ffd971e3~172~ubuntu22.04.1
; #@! TF.FileFunction,Plated,1,2,PTH
FMAT,2
INCH
; #@! TA.AperFunction,Plated,PTH,ViaDrill
T1C0.0157
; #@! TA.AperFunction,Plated,PTH,ComponentDrill
T2C0.0236
; #@! TA.AperFunction,Plated,PTH,ComponentDrill
T3C0.0354
; #@! TA.AperFunction,Plated,PTH,ComponentDrill
T4C0.0362
; #@! TA.AperFunction,Plated,PTH,ComponentDrill
T5C0.0394
%
G90
G05
T1
X5.3933Y-2.9331
X5.3937Y-2.8846
X5.3949Y-2.9878
X5.4252Y-3.9358
X5.4969Y-3.5409
X5.531Y-3.5075
X5.5323Y-3.8681
X5.5343Y-3.6398
X5.542Y-3.336
X5.567Y-3.474
X5.5843Y-3.1724
X5.622Y-3.432
X5.6879Y-3.4997
X5.72Y-3.899
X5.826Y-4.0411
X5.8579Y-3.2154
X5.863Y-3.1776
X5.9004Y-3.9958
X5.9196Y-3.5967
X5.9573Y-4.0114
X6.0689Y-3.5732
X6.0823Y-2.9346
X6.0823Y-2.9941
X6.0831Y-2.8717
X6.0984Y-3.8614
X6.1876Y-4.0133
X6.2791Y-3.1705
X6.3807Y-3.6063
X6.3807Y-3.6063
X6.3807Y-3.6063
X6.4135Y-3.7043
X6.4323Y-3.4559
X6.4519Y-3.6688
X6.4699Y-3.5303
X6.4752Y-3.7362
X6.534Y-3.4632
X6.5504Y-3.2067
X6.5526Y-3.1681
X6.5655Y-3.7096
X6.5685Y-3.5098
X6.5806Y-3.435
X6.6079Y-3.7126
X6.6713Y-3.6414
X6.726Y-3.7098
X6.7791Y-2.8839
X6.7803Y-2.9346
X6.7803Y-2.9846
X6.8425Y-3.4933
X6.8441Y-3.7134
X6.9063Y-2.9016
X6.9626Y-3.713
X6.963Y-3.5795
X6.981Y-3.4944
X6.9921Y-3.9118
X7.0524Y-3.6378
X7.0732Y-3.5894
X7.122Y-3.7138
X7.1524Y-3.9362
X7.1562Y-3.5411
X7.1594Y-3.7142
X7.1697Y-3.5039
X7.2972Y-3.6748
X7.2996Y-3.4531
T4
X5.5877Y-3.118
X5.6861Y-3.118
X5.7649Y-3.118
X5.8633Y-3.118
X6.296Y-3.118
X6.3944Y-3.118
X6.4732Y-3.118
X6.5716Y-3.118
T5
X4.3536Y-3.352
X4.3536Y-3.4504
X4.3536Y-3.7433
X4.3536Y-3.8417
X4.8Y-3.3
X4.8Y-3.4
X4.8Y-3.5
X4.8Y-3.6
X4.8Y-3.7
X4.8Y-3.8
X4.8Y-3.9
X4.9Y-3.3
X4.9Y-3.4
X4.9Y-3.5
X4.9Y-3.6
X4.9Y-3.7
X4.9Y-3.8
X4.9Y-3.9
X5.0Y-3.3
X5.0Y-3.4
X5.0Y-3.5
X5.0Y-3.6
X5.0Y-3.7
X5.0Y-3.8
X5.0Y-3.9
X5.1Y-3.3
X5.1Y-3.4
X5.1Y-3.5
X5.1Y-3.6
X5.1Y-3.7
X5.1Y-3.8
X5.1Y-3.9
X5.2Y-3.3
X5.2Y-3.4
X5.2Y-3.5
X5.2Y-3.6
X5.2Y-3.7
X5.2Y-3.8
X5.2Y-3.9
X5.3Y-3.3
X5.3Y-3.4
X5.3Y-3.5
X5.3Y-3.6
X5.3Y-3.7
X5.3Y-3.8
X5.3Y-3.9
X6.6742Y-3.2762
X6.6742Y-3.3762
X6.7742Y-3.2762
X6.7742Y-3.3762
X6.8742Y-3.2762
X6.8742Y-3.3762
X6.9742Y-3.2762
X6.9742Y-3.3762
X7.0742Y-3.2762
X7.0742Y-3.3762
X7.1742Y-3.2762
X7.1742Y-3.3762
X7.2742Y-3.2762
X7.2742Y-3.3762
T2
G00X5.4164Y-2.8011
M15
G01X5.4164Y-2.8326
M16
G05
G00X6.0346Y-2.8011
M15
G01X6.0346Y-2.8326
M16
G05
G00X6.1247Y-2.8011
M15
G01X6.1247Y-2.8326
M16
G05
G00X6.7429Y-2.8011
M15
G01X6.7429Y-2.8326
M16
G05
T3
G00X5.4164Y-3.057
M15
G01X5.4164Y-3.1121
M16
G05
G00X6.0346Y-3.057
M15
G01X6.0346Y-3.1121
M16
G05
G00X6.1247Y-3.057
M15
G01X6.1247Y-3.1121
M16
G05
G00X6.7429Y-3.057
M15
G01X6.7429Y-3.1121
M16
G05
T0
M30
