%TF.GenerationSoftware,KiCad,Pcbnew,7.99.0-unknown-70ffd971e3~172~ubuntu22.04.1*%
%TF.CreationDate,2023-07-09T07:41:58-05:00*%
%TF.ProjectId,ext_pcb,6578745f-7063-4622-9e6b-696361645f70,rev?*%
%TF.SameCoordinates,Original*%
%TF.FileFunction,Paste,Bot*%
%TF.FilePolarity,Positive*%
%FSLAX46Y46*%
G04 Gerber Fmt 4.6, Leading zero omitted, Abs format (unit mm)*
G04 Created by KiCad (PCBNEW 7.99.0-unknown-70ffd971e3~172~ubuntu22.04.1) date 2023-07-09 07:41:58*
%MOMM*%
%LPD*%
G01*
G04 APERTURE LIST*
%ADD10C,2.000000*%
%ADD11R,0.600000X2.000000*%
%ADD12R,0.600000X1.550000*%
%ADD13R,1.200000X1.800000*%
%ADD14R,1.550000X0.600000*%
%ADD15R,1.800000X1.200000*%
G04 APERTURE END LIST*
D10*
%TO.C,J2*%
X137581800Y-77705200D02*
X137581800Y-79105200D01*
X153261800Y-77665200D02*
X153261800Y-79065200D01*
%TO.C,J3*%
X155572400Y-77705200D02*
X155572400Y-79105200D01*
X171252400Y-77665200D02*
X171252400Y-79065200D01*
%TD*%
D11*
%TO.C,P1*%
X136900000Y-104650000D03*
X137700000Y-104650000D03*
X138500000Y-104650000D03*
X139300000Y-104650000D03*
X140100000Y-104650000D03*
X140900000Y-104650000D03*
X141700000Y-104650000D03*
X142500000Y-104650000D03*
X146500000Y-104650000D03*
X147300000Y-104650000D03*
X148100000Y-104650000D03*
X148900000Y-104650000D03*
X149700000Y-104650000D03*
X150500000Y-104650000D03*
X151300000Y-104650000D03*
X152100000Y-104650000D03*
X152900000Y-104650000D03*
X153700000Y-104650000D03*
X154500000Y-104650000D03*
X155300000Y-104650000D03*
X156100000Y-104650000D03*
X156900000Y-104650000D03*
X157700000Y-104650000D03*
X158500000Y-104650000D03*
X159300000Y-104650000D03*
X160100000Y-104650000D03*
%TD*%
D12*
%TO.C,J9*%
X174420000Y-73700000D03*
X175420000Y-73700000D03*
X176420000Y-73700000D03*
X177420000Y-73700000D03*
D13*
X173120000Y-69825000D03*
X178720000Y-69825000D03*
%TD*%
D14*
%TO.C,J7*%
X185500000Y-98660000D03*
X185500000Y-97660000D03*
X185500000Y-96660000D03*
X185500000Y-95660000D03*
D15*
X181625000Y-99960000D03*
X181625000Y-94360000D03*
%TD*%
D14*
%TO.C,J8*%
X181485000Y-89020000D03*
X181485000Y-90020000D03*
X181485000Y-91020000D03*
X181485000Y-92020000D03*
D15*
X185360000Y-87720000D03*
X185360000Y-93320000D03*
%TD*%
M02*
